# xmcd CD database file
#
# Track frame offsets:
#	150
#	26760
#	93997
#	147065
#
# Disc length: 2591 seconds
#
# Revision: 0
# Processed by: cddbd v1.5.2PL0 Copyright (c) Steve Scherf et al.
# Submitted via: CDex 1.70beta2
#
DISCID=2b0a1d04
DTITLE=Revolutionary Ensemble - Revolutionary Ensemble
DYEAR=1977
DGENRE=Jazz
TTITLE0=Clear spring
TTITLE1=March 4-1
TTITLE2=Chicago
TTITLE3=Revolutionary Ensemble
EXTD=YEAR: 1977
EXTT0=
EXTT1=
EXTT2=
EXTT3=
PLAYORDER=
